<?xml version="1.0" standalone="no"?>
<!DOCTYPE svg PUBLIC "-//W3C//DTD SVG 20010904//EN"
 "http://www.w3.org/TR/2001/REC-SVG-20010904/DTD/svg10.dtd">
<svg version="1.0" xmlns="http://www.w3.org/2000/svg"
 width="64.000000pt" height="64.000000pt" viewBox="0 0 64.000000 64.000000"
 preserveAspectRatio="xMidYMid meet">

<g transform="translate(0.000000,64.000000) scale(0.100000,-0.100000)"
fill="#000000" stroke="none">
<path d="M42 595 c-34 -38 -48 -89 -37 -132 8 -33 42 -73 62 -73 11 0 12 -6 6
-22 -4 -13 -8 -59 -8 -103 0 -94 27 -159 85 -207 73 -60 210 -74 299 -29 42
22 97 79 113 120 20 48 27 121 18 177 -9 54 -8 57 20 81 53 44 52 128 -2 189
-26 29 -36 34 -74 34 -40 0 -47 -3 -65 -34 -20 -34 -20 -34 -54 -20 -45 18
-116 18 -162 -1 -19 -8 -37 -15 -38 -15 -2 0 -12 16 -24 35 -18 32 -25 35 -65
35 -38 0 -48 -5 -74 -35z m352 -45 c45 -17 113 -88 136 -143 84 -195 -19 -377
-214 -377 -70 0 -151 41 -188 95 -110 159 9 435 187 435 30 0 65 -4 79 -10z"/>
<path d="M192 418 c-15 -24 -18 -37 -11 -51 14 -24 37 -18 63 16 16 21 18 32
10 45 -18 28 -40 25 -62 -10z"/>
<path d="M390 430 c-8 -16 -5 -25 19 -52 25 -28 31 -30 45 -19 22 19 20 44 -7
69 -29 27 -43 28 -57 2z"/>
<path d="M270 307 c0 -8 9 -22 20 -32 11 -10 20 -29 20 -42 0 -21 -3 -23 -22
-17 -13 3 -29 11 -36 17 -23 18 -26 -3 -4 -26 17 -17 34 -22 70 -22 53 0 112
29 94 47 -7 7 -18 5 -33 -6 -51 -35 -67 -5 -24 46 14 16 23 34 19 39 -9 15
-104 11 -104 -4z"/>
</g>
</svg>
